<?xml version="1.0" encoding="UTF-8"?>
<svg id="Ebene_1" data-name="Ebene 1" xmlns="http://www.w3.org/2000/svg" viewBox="0 0 482.515764842216413 126.493862759076364">
  <polygon points="106.006855831914436 0 106.006855831914436 84.329241839384849 166.768856010170566 84.329241839384849 166.768856010170566 69.429673497112162 123.025188423069267 69.429673497112162 123.025188423069267 48.486808193215438 159.878861593597321 48.486808193215438 159.878861593597321 34.714840575471499 123.025188423069267 34.714840575471499 123.025188423069267 14.899568342271778 166.768856010170566 14.899568342271778 166.768856010170566 0 106.006855831914436 0" style="fill: #53565a;"/>
  <polygon points="252.465271153606409 0 252.465271153606409 84.329241839384849 313.231289593396468 84.329241839384849 313.231289593396468 69.429673497112162 269.483611398593894 69.429673497112162 269.483611398593894 48.486808193215438 306.337269261460278 48.486808193215438 306.337269261460278 34.714840575471499 269.483611398593894 34.714840575471499 269.483611398593894 14.899568342271778 313.231289593396468 14.899568342271778 313.231289593396468 0 252.465271153606409 0" style="fill: #53565a;"/>
  <polygon points="179.201755193100325 0 179.201755193100325 84.329241839384849 196.155879791869665 84.329241839384849 196.155879791869665 48.627256001090245 232.885162892993321 48.627256001090245 232.885162892993321 34.859298991047581 196.155879791869665 34.859298991047581 196.155879791869665 14.899568342271778 240.035984579144497 14.899568342271778 240.035984579144497 0 179.201755193100325 0" style="fill: #53565a;"/>
  <g>
    <path d="M325.697880942551819,73.964951347572423l8.884353288391139-12.399589708275016c.802580770228815.533701669922266,1.886026540880266,1.256009055466166,3.222293673370586,2.154882679693401,1.352340178618761.898865970395491,4.012812005166779,2.062585125733676,8.013592187231552,3.507196069904239,3.984737751256034,1.432571467235903,7.784865086927311,2.158893287394676,11.372307753110363,2.158893287394676,8.250340502934705,0,12.371500146698963-3.013623438491777,12.371500146698963-9.028830838543399,0-2.688576695784832-1.095508209080435-4.871548937053376-3.302536442726705-6.53285133150348-2.195027025871241-1.661310048282758-6.488734646787634-3.442999558267729-12.857059216541529-5.316978968380681-9.149206473332015-2.692594957317851-15.878700043522258-5.906859761453234-20.184439487544296-9.630754935468758-4.309750051725132-3.71986925865167-6.464640385249368-8.691744618899065-6.464640385249368-14.891539473037483,0-7.271216455515969,2.59630210332034-13.081768055308203,7.80090751773605-17.447704884012637C339.758765391447923,2.183768239743586,347.250703039523614.000803652306786,357.029911690608969.000803652306786c6.191765984902304,0,11.729466145843617.698228431670032,16.613039252169983,2.09067468730882,4.883603721653344,1.392446255638788,8.186140164383687,2.81298207285181,9.887586905006174,4.245549713170476l2.688576695785741,2.022456087222054-8.751942003582371,13.338592371015693c-.625991570050246-.537719931456195-1.496783286533173-1.16772976304037-2.620365749527991-1.89003714858336s-3.451020773671189-1.701431432961726-6.994346755134757-2.961451096130077c-3.547305973836046-1.256009055465256-7.158842901553726-1.886026540880266-10.838590775525518-1.886026540880266-7.985487317990192,0-11.970225069249864,2.692602611148686-11.970225069249864,8.073781918082204,0,2.343480741482381,1.095508209084073,4.221470759297517,3.290504619628337,5.666085530384407,2.190985802837531,1.432575294149501,6.260007546483394,3.053756303920636,12.170847300312744,4.847477637011252,9.594659466150915,2.692602611148686,16.617080475196417,5.999157315412049,21.059241811726679,9.895592812747054,4.438181344157783,3.912493235805414,6.661282623936131,9.05290596550185,6.661282623936131,15.429267058324513,0,7.459814517305858-2.608333926422347,13.563305036697784-7.80090751773605,18.318485119749312-5.204605414419348,4.767219559988007-12.78881765496044,7.138793689962768-22.740604898521269,7.138793689962768-6.368324569753895,0-12.227057038788189-.870780235738494-17.564073738012667-2.624380184148322-5.337047314555093-1.753599948409828-9.085006134780997-3.483120942946698-11.239896468305233-5.184552375909334l-3.222293673370586-2.556161584061556h.040136692343367Z" style="fill: #53565a;"/>
    <path d="M441.516853074051141,68.591793256042365c7.082610739893425,0,12.88112286274918-2.48794298397479,17.411578799372364-7.463832778837968,4.530486551946524-4.97588596794867,6.789683301041805-11.312110368428876,6.789683301041805-19.028749201441315s-2.259196749095281-14.056889148856499-6.789683301041805-19.02875685527215c-4.530455936623184-4.975893621780415-10.328968059478939-7.463832778838878-17.411578799372364-7.463832778838878-7.082610739897063,0-12.616269677811943,2.516028718633606-17.13068318362275,7.528033117391715-4.530486551950162,5.028062137228517-6.789683301045443,11.340207583834854-6.789683301045443,18.964556516719313,0,7.620323017520604,2.259196749095281,13.948533856427275,6.789683301045443,18.960530601354549,4.530455936619546,5.028054483396772,10.236662851682922,7.532051378924734,17.13068318362275,7.532051378924734M441.516853074051141,84.330041664774399c-11.91805655380449,0-21.701275812589301-4.077016170635034-29.373782653219678-12.235062946529069-7.656433794498298-8.158046775890398-11.48867660711403-18.16198722723675-11.48867660711403-29.995767442482247,0-11.833787869077241,3.808148551081104-21.809638758847541,11.424476268559374-29.927552669311808C419.695167184435377,4.053744695986097,429.502480704754817.000795998475041,441.516853074051141.000795998475041c12.014372369292687,0,21.954097174424533,4.064980520615791,29.574435499605897,12.170862607976233,7.616297102154931,8.117913910464267,11.424476268559374,18.093764800234567,11.424476268559374,29.927552669311808,0,11.833780215245497-3.808179166404443,21.837720666591849-11.424476268559374,29.995767442482247-7.620338325181365,8.158046775894036-17.479820360953454,12.235062946529069-29.574435499605897,12.235062946529069" style="fill: #53565a;"/>
    <path d="M59.682553534557883,20.492621012560448H9.674890754766238C4.353901178683373,20.492621012560448,0,16.138716006960749,0,10.817734084710537v-1.143658462998246C0,4.353093699462079,4.353901178683373.003199301563654,9.674890754766238.003199301563654h50.007662779791644c5.320989576082866,0,9.67488692785264,4.349894397898424,9.67488692785264,9.670876320148636v1.143658462998246c0,5.320981922250212-4.353897351769774,9.674886927849911-9.67488692785264,9.674886927849911" style="fill: #ef7918;"/>
    <path d="M59.682553534557883,52.411333252125587H9.674890754766238c-5.320989576082866,0-9.674890754766238-4.3539050055997-9.674890754766238-9.674886927850821v-1.143658462997337c0-5.320981922251121,4.353901178683373-9.670876320149546,9.674890754766238-9.670876320149546h50.007662779791644c5.320989576082866,0,9.67488692785264,4.349894397898424,9.67488692785264,9.670876320149546v1.143658462997337c0,5.320981922251121-4.353897351769774,9.674886927850821-9.67488692785264,9.674886927850821" style="fill: #ef7918;"/>
    <path d="M59.682553534557883,84.330041664774399H9.674890754766238c-5.320989576082866,0-9.674890754766238-4.353901178683373-9.674890754766238-9.674890754766238v-1.143650809164683c0-5.320989576084685,4.353901178683373-9.670876320149546,9.674890754766238-9.670876320149546h50.007662779791644c5.320989576082866,0,9.67488692785264,4.349886744064861,9.67488692785264,9.670876320149546v1.143650809164683c0,5.320989576082866-4.353897351769774,9.674890754766238-9.67488692785264,9.674890754766238" style="fill: #ef7918;"/>
  </g>
  <polygon points="17.41961914935564 109.126010299018162 10.822555998549433 117.444569402037814 4.22148032658697 109.126010299018162 2.825021549788289 109.126010299018162 2.825021549788289 126.096192636256092 4.823402510053711 126.096192636256092 4.823402510053711 112.914104854857214 10.537645948184945 120.072961150615811 11.10746604891574 120.072961150615811 16.821709487046974 112.801745651830061 16.821709487046974 126.096192636256092 18.792000885738162 126.096192636256092 18.792000885738162 109.126010299018162 17.41961914935564 109.126010299018162" style="fill: #53565a;"/>
  <path d="M35.561943683489517,111.670133362869819l3.768030993313005,8.828186602715505h-7.568164069360137l3.800133076047132-8.828186602715505ZM34.643009366922342,109.126010299018162l-7.339433142145936,16.970182337237929h2.054560083415709l1.601110750139924-3.760004994262999h9.141185257929465l1.629202225172776,3.760004994262999h2.058574518032401l-7.34344566330401-16.970182337237929h-1.801754029240328Z" style="fill: #53565a;"/>
  <polygon points="64.607878291672023 109.126010299018162 64.607878291672023 122.532815529744767 53.753222123845262 109.126010299018162 52.29657170273822 109.126010299018162 52.29657170273822 126.096192636256092 54.294952663003642 126.096192636256092 54.294952663003642 112.63320828238102 65.177698392404636 126.096192636256092 66.606255425022027 126.096192636256092 66.606255425022027 109.126010299018162 64.607878291672023 109.126010299018162" style="fill: #53565a;"/>
  <path d="M83.370985963529165,111.670133362869819l3.768027166395768,8.828186602715505h-7.564151548202062l3.796124381806294-8.828186602715505ZM82.456062254661447,109.126010299018162l-7.339435055600916,16.970182337237929h2.054563910329307l1.601112663600361-3.760004994262999h9.141185257925827l1.629202225176414,3.760004994262999h2.054556256498472l-7.339435055604554-16.970182337237929h-1.801750202324911Z" style="fill: #53565a;"/>
  <path d="M112.535298556478665,118.771206101051575v-.112358724662045h-6.055336438561426v-1.837868154771058h8.05371357191143v1.187792368838927c0,2.600302187001944-.678160085499258,4.666900551441358-2.026466694924238,6.195781854614324-1.352317217126256,1.52486854282688-3.226304281071862,2.287303053424694-5.62596414570362,2.287303053424694-2.552147149443044,0-4.594663929005037-.834665153477545-6.127565646351286-2.516033023912314-1.532894063511776-1.677355827641804-2.299341095269483-3.78809503420598-2.299341095269483-6.336230619217531,0-2.544122107126896.786515377927572-4.662887312737439,2.355527872252424-6.352281182222214,1.569004840490379-1.685382305051462,3.631589966224055-2.528071065757103,6.1837371156671-2.528071065757103.778486508692367,0,1.524872848109226.072231121246659,2.227111887481442.224718406057946.706257300904326.152485371352668,1.27607740163694.337074738898082,1.713470909899115.549753668019548.437393508262176.220703971437615.830655024141379.441409856335667,1.171740370740736.666126348934995.341093000432011.22873092721602.589888446904297.413320294761434.746386339416858.56580757957272l.196626931023275.224716492599327-1.171740370740736,1.500791980779468c-.132426592470438-.128410244396946-.321024654260327-.30096013500588-.569820100732613-.509626542967453-.248795446470467-.20465388680168-.794536593330122-.485550459277874-1.641241702109255-.834665631842654-.846705108780952-.349114215834561-1.737549863773893-.521665063171895-2.672534264978822-.521665063171895-1.962266356369582,0-3.53127119686178.674152347983181-4.71104043683772,2.022457043951363-1.179769239977759,1.348304695966362-1.773660640750677,3.013621525034978-1.773660640750677,4.991937966045953,0,1.98232944053234.577841316135164,3.639620748916059,1.72952099453687,4.979899924201163s2.700623826553056,2.00640600258339,4.642821836752773,2.00640600258339c1.693410217558267,0,3.057766911621002-.537716582904977,4.0970806898913-1.609137705918329,1.039321432102952-1.075433644173245,1.556973017386554-2.491955983497974,1.556973017386554-4.245554975181221" style="fill: #53565a;"/>
  <polygon points="123.728636767818898 109.126010299018162 123.728636767818898 126.096192636256092 135.755040960217229 126.096192636256092 135.755040960217229 124.258324003121743 125.731032162699194 124.258324003121743 125.731032162699194 118.431721361963355 134.298379058362116 118.431721361963355 134.298379058362116 116.593853685557406 125.731032162699194 116.593853685557406 125.731032162699194 110.963877975422292 135.755040960217229 110.963877975422292 135.755040960217229 109.126010299018162 123.728636767818898 109.126010299018162" style="fill: #53565a;"/>
  <polygon points="159.778933169640368 109.126010299018162 153.181866191920562 117.444569402037814 146.580788606499482 109.126010299018162 145.180321135458144 109.126010299018162 145.180321135458144 126.096192636256092 147.182716530340258 126.096192636256092 147.182716530340258 112.914104854857214 152.896959968469673 120.072961150615811 153.466772415371452 120.072961150615811 159.177005245799592 112.801745651830061 159.177005245799592 126.096192636256092 161.147300471406197 126.096192636256092 161.147300471406197 109.126010299018162 159.778933169640368 109.126010299018162" style="fill: #53565a;"/>
  <polygon points="171.74393832581336 109.126010299018162 171.74393832581336 126.096192636256092 183.770342518213511 126.096192636256092 183.770342518213511 124.258324003121743 173.746333720695475 124.258324003121743 173.746333720695475 118.431721361963355 182.309670008655303 118.431721361963355 182.309670008655303 116.593853685557406 173.746333720695475 116.593853685557406 173.746333720695475 110.963877975422292 183.770342518213511 110.963877975422292 183.770342518213511 109.126010299018162 171.74393832581336 109.126010299018162" style="fill: #53565a;"/>
  <polygon points="205.508142414679241 109.126010299018162 205.508142414679241 122.532815529744767 194.653478593019827 109.126010299018162 193.196831998828202 109.126010299018162 193.196831998828202 126.096192636256092 195.195216786009041 126.096192636256092 195.195216786009041 112.63320828238102 206.077954861579201 126.096192636256092 207.506527201860081 126.096192636256092 207.506527201860081 109.126010299018162 205.508142414679241 109.126010299018162" style="fill: #53565a;"/>
  <polygon points="216.472745871886218 109.126010299018162 216.472745871886218 110.963877975422292 222.158899748441399 110.963877975422292 222.158899748441399 126.096192636256092 224.157284535622239 126.096192636256092 224.157284535622239 110.963877975422292 229.871527973751654 110.963877975422292 229.871527973751654 109.126010299018162 216.472745871886218 109.126010299018162" style="fill: #53565a;"/>
  <g>
    <path d="M262.375314400213938,122.788030866564441l1.143666116826353,1.528881303169328c-.056179123148468.056179601513577-.132441900132108.136435765080023-.228757715623942.240768849467713-.096285200168495.104333084389509-.321001692766004.276883931728662-.670138870096707.521665421947546-.353117169703182.244781729401438-.730328600944631.465486179204163-1.127593070697912.650075546749576-.4012750774491.192615127412864-.930981447334489.365165974750198-1.589057878998574.525678541062007-.654096439287969.160512327131073-1.344288347892871.236755730353252-2.070606341138046.236755730353252-2.512033418592182,0-4.562586721222033-.846703195322334-6.151659907885914-2.544122824670922-1.593083794363338-1.697419390166033-2.387612733862625-3.800133076048951-2.387612733862625-6.308140579276369,0-2.544123063853476.794528939499287-4.662887312737439,2.387612733862625-6.352281182222214,1.589073186663882-1.685380391594663,3.639626489293732-2.528071065757103,6.151659907885914-2.528071065757103,1.143635501503013,0,2.190985802841169.18057684638552,3.142020288683852.549755581476347.955045093545777.365166213932753,1.621173355939391.730330514405068,2.002395394883933,1.091484207176109l.541738192987395.533703583381794-1.143666116826353,1.528881542353702c-.132411284808768-.132422765556839-.317021700389887-.300961091732461-.553770016096678-.509627499694034-.240758923406247-.204652930071461-.750381639452826-.4815369813914-1.532878755850106-.818613633746281-.778486508690548-.341089173516593-1.585077886622457-.509626542965634-2.423754126168205-.509626542965634-1.906079579388461,0-3.46706320447629.678164869143075-4.686961482962943,2.034495564157623-1.215887670787197,1.360343216176261-1.825836810032342,3.01763500292509-1.825836810032342,4.979899445839692,0,1.942200880384917.61395974694824,3.595479667608743,1.841879240837443,4.951810123442556,1.227934801554511,1.356330455833813,2.784892511277576,2.034495803341997,4.670919052157842,2.034495803341997.513633323753311,0,1.02325603979989-.060192242264748,1.52889876347399-.184589367545414.501601500647666-.120384245346941.926940224308055-.268858530635043,1.268025570909231-.449434898655454.341085346601176-.180576607202966.646075223885418-.365165974748379.914939016529388-.553768102636241.264822569613898-.184589367545414.465475416003756-.33707617399341.597886700812523-.449434898655454l.200652846389858-.200640648094122Z" style="fill: #53565a;"/>
    <path d="M279.514018799239238,124.599815481155019c1.942205664032372,0,3.503189289120201-.670139587640733,4.682950875263487-2.010418762925838,1.18377219384638-1.336266414940837,1.773668294583331-2.98553220264148,1.773668294583331-4.947797602282662,0-1.982328962170868-.589896100736951-3.647645791239484-1.773668294583331-4.995950487205846-1.179761586143286-1.348304695966362-2.740745211231115-2.022457043951363-4.682950875263487-2.022457043951363-1.922122010197199,0-3.471073812179384.674152347985-4.638803575220663,2.022457043951363-1.175750978440192,1.348304695966362-1.757625863774592,3.013621525034978-1.757625863774592,4.995950487205846,0,1.962265399641183.5818748853344,3.611531187341825,1.757625863774592,4.947797602282662,1.16772976304128,1.340279175285104,2.716681565023464,2.010418762925838,4.638803575220663,2.010418762925838M279.514018799239238,126.493862759076364c-2.512018110930512,0-4.550539590454719-.842690494775525-6.111523215542547-2.532084304464661-1.560983625087829-1.685381109140508-2.343480741485109-3.7921073161815-2.343480741485109-6.320179338665184,0-2.54813558501337.778486508694186-4.662887312737439,2.327438310676371-6.352281182222214,1.552962409685279-1.689393869482956,3.595494496912579-2.532084543643577,6.127565646351286-2.532084543643577,2.552154803273879,0,4.60270810590373.838678153002547,6.155639900262031,2.516033502277423,1.548951801982184,1.681367870434769,2.327438310676371,3.800133076048951,2.327438310676371,6.368332223588368,0,2.528072022483684-.778486508694186,4.634798229524677-2.327438310676371,6.320179338665184-1.552931794358301,1.689393809689136-3.603485096988152,2.532084304464661-6.155639900262031,2.532084304464661" style="fill: #53565a;"/>
  </g>
  <polygon points="309.762205777405143 109.126010299018162 309.762205777405143 122.532815529744767 298.907541955747547 109.126010299018162 297.450895361554103 109.126010299018162 297.450895361554103 126.096192636256092 299.449280148734942 126.096192636256092 299.449280148734942 112.63320828238102 310.332018224306921 126.096192636256092 311.760590564585982 126.096192636256092 311.760590564585982 109.126010299018162 309.762205777405143 109.126010299018162" style="fill: #53565a;"/>
  <g>
    <path d="M321.214756299875262,124.485450256730473l1.087486993681523-1.496778742071911c.132411284808768.112358724662045.321001692766004.264845531110041.569812446901778.449434898655454.248780138808797.188602127887862.794528939499287.437396378449193,1.641226394447585.7383572309991.846697454948298.300961091732461,1.749604648372042.449435018246731,2.700639134214725.449435018246731,1.428541724952083,0,2.487923849395884-.256819890835686,3.186167588730314-.774472672030242.694202516304358-.521665541538823,1.03929847060499-1.23193321096187,1.03929847060499-2.138828528957674,0-.790524072172047-.312980477363453-1.432574337421102-.942982655113155-1.922137317858869-.626022185377224-.489562980437768-1.817815594626154-.991164481085434-3.567389627671218-1.500791980779468-2.038521479524206-.621985745994607-3.49516807371765-1.296138093977788-4.369970397903671-2.022457043951363-.878812931885477-.726318949973574-1.312172870952054-1.709457432009003-1.312172870952054-2.957442401884691,0-1.392445298912207.537696969960962-2.49998150418287,1.625183963642485-3.322608615817444,1.087456378350907-.818613633746281,2.572207841782074-1.227919493892841,4.45823438266234-1.227919493892841.742360424053913,0,1.444614771087799.056179123152106,2.110743033481413.168537369449041s1.203825232354575.248793533015487,1.61315214053684.40930586014656c.409296292855288.160514240586053.766424070261564.325039088875201,1.071413947545807.493576458326061.304959261957265.172551804067552.513633323749673.31299961194054.63000217775334.425357858241114l.196642238686763.172551804065733-1.083476385978429,1.641239788652456c-.112358246300573-.116370767458648-.280895615749614-.252807010901961-.497590892944572-.413319338033034-.220705884898052-.160512327129254-.726317993245175-.37319125625072-1.516836325045006-.634024266200868-.790518331796193-.264845531110041-1.633205179041397-.397268296665061-2.524049934036157-.397268296665061-1.203855847681552,0-2.17494337203243.236755969535807-2.917334411409684.706254430717308-.742360424053913.473511939071614-1.111550639889174,1.131613245688641-1.111550639889174,1.978316441010975,0,.698229388399341.317021700389887,1.264036011241842.955075708869117,1.697419868531142.638023393155891.437396378447374,1.825806194705365.906895796359095,3.555327189242234,1.416522339324729,2.114753641180869.601922183464922,3.591483889209485,1.304164093024156,4.430160128751595,2.106726685404283.838676239545748.802561635649909,1.255993747803586,1.853918717773922,1.255993747803586,3.154069811274894,0,1.432573859057811-.545718185363512,2.596289426661315-1.629194571341941,3.483120942948517-1.083445770651451.8828185167622-2.62838696493418,1.324227894732758-4.626771752115019,1.324227894732758-.782497116393643,0-1.516836325041368-.068217762947825-2.211069456672703-.208666168779018-.698213124007452-.1444612857631-1.268025570909231-.304973732483631-1.717458556107886-.497588740303399-.445422377495561-.184589367545414-.83867623954211-.381217135707629-1.171740370740736-.577844903868026-.333064131194988-.196627887755312-.565832454525662-.373191495433275-.69824373933443-.525678421472549l-.228727100300603-.196627768160397Z" style="fill: #53565a;"/>
    <path d="M349.464558490863965,126.493862759076364c-2.134806679692701,0-3.816169766483654-.682178048053174-5.040078652673401-2.050546844708151-1.231960716915637-1.368368976040074-1.845920463863877-3.182160090396792-1.845920463863877-5.445386103407145v-9.871517685789513h2.002395394883933v9.871517685789513c0,1.697419390167852.417348123584816,3.057763084705584,1.256024363126926,4.089055647573332.834665631846292,1.0272798025253,2.046542694930395,1.540919703787949,3.627579358526418,1.540919703787949s2.788903118977032-.51363990126265,3.62757935852278-1.540919703787949c.83867623954211-1.031292562867748,1.256024363126926-2.39163625740548,1.256024363126926-4.089055647573332v-9.871517685789513h1.9983541718575v9.871517685789513c0,2.263226013010353-.605907916218712,4.077017127367071-1.81377437159972,5.445386103407145-1.207866455384647,1.368368796654977-2.897250757578149,2.050546844708151-5.068183521907486,2.050546844708151" style="fill: #53565a;"/>
  </g>
  <polygon points="366.716049750752973 109.126010299018162 366.716049750752973 126.096192636256092 377.626892695559036 126.096192636256092 377.626892695559036 124.258324003121743 368.718445145633268 124.258324003121743 368.718445145633268 109.126010299018162 366.716049750752973 109.126010299018162" style="fill: #53565a;"/>
  <polygon points="382.057818207463242 109.126010299018162 382.057818207463242 110.963877975422292 387.739961476315329 110.963877975422292 387.739961476315329 126.096192636256092 389.738346263496169 126.096192636256092 389.738346263496169 110.963877975422292 395.452574393965733 110.963877975422292 395.452574393965733 109.126010299018162 382.057818207463242 109.126010299018162" style="fill: #53565a;"/>
  <path d="M408.791580071879253,111.670133362869819l3.768042474061076,8.828186602715505h-7.568169809735991l3.800127335674915-8.828186602715505ZM407.876671670676842,109.126010299018162l-7.343453317134845,16.970182337237929h2.058574518032401l1.601120317431196-3.760004994262999h9.13717465022637l1.633205179041397,3.760004994262999h2.054563910332945l-7.343453317138483-16.970182337237929h-1.797731940790982Z" style="fill: #53565a;"/>
  <polygon points="437.83793181387864 109.126010299018162 437.83793181387864 122.532815529744767 426.987278599924139 109.126010299018162 425.526621398031239 109.126010299018162 425.526621398031239 126.096192636256092 427.52500618520844 126.096192636256092 427.52500618520844 112.63320828238102 438.411754868483513 126.096192636256092 439.840327208762574 126.096192636256092 439.840327208762574 109.126010299018162 437.83793181387864 109.126010299018162" style="fill: #53565a;"/>
  <polygon points="448.806147879548917 109.126010299018162 448.806147879548917 110.963877975422292 454.492301756104098 110.963877975422292 454.492301756104098 126.096192636256092 456.490686543284937 126.096192636256092 456.490686543284937 110.963877975422292 462.204914673754502 110.963877975422292 462.204914673754502 109.126010299018162 448.806147879548917 109.126010299018162" style="fill: #53565a;"/>
  <path d="M470.027497842277626,124.485450256730473l1.087486993677885-1.496778742071911c.132411284808768.112358724662045.321001692766004.264845531110041.569812446901778.449434898655454.248780138808797.188602127887862.794528939499287.437396378449193,1.641226394447585.7383572309991.846697454948298.300961091732461,1.749604648372042.449435018246731,2.700639134214725.449435018246731,1.428541724952083,0,2.487923849395884-.256819890835686,3.186167588730314-.774472672030242.694202516304358-.521665541538823,1.03929847060499-1.23193321096187,1.03929847060499-2.138828528957674,0-.790524072172047-.312980477363453-1.432574337421102-.942982655113155-1.922137317858869-.626022185377224-.489562980437768-1.817815594626154-.991164481085434-3.567389627671218-1.500791980779468-2.038521479524206-.621985745994607-3.49516807371765-1.296138093977788-4.373981005603127-2.022457043951363-.874802324186021-.726318949973574-1.308162263252598-1.709457432009003-1.308162263252598-2.957442401884691,0-1.392445298912207.537696969960962-2.49998150418287,1.625183963642485-3.322608615817444,1.087456378354545-.818613633746281,2.572207841782074-1.227919493892841,4.45823438266234-1.227919493892841.742360424053913,0,1.444614771087799.056179123152106,2.110743033481413.168537369449041s1.203825232354575.248793533015487,1.61315214053684.40930586014656c.409296292855288.160514240586053.766424070261564.325039088875201,1.071413947545807.493576458326061.304959261957265.172551804067552.513633323749673.31299961194054.63000217775334.425357858241114l.196642238686763.172551804065733-1.083476385978429,1.641239788652456c-.112358246300573-.116370767458648-.280895615749614-.252807010901961-.497590892944572-.413319338033034-.220705884898052-.160512327129254-.726317993245175-.37319125625072-1.516836325045006-.634024266200868-.790518331796193-.264845531110041-1.633205179041397-.397268296665061-2.524049934036157-.397268296665061-1.203855847677914,0-2.17494337203243.236755969535807-2.917334411409684.706254430717308-.742360424050275.473511939071614-1.111550639889174,1.131613245688641-1.111550639889174,1.978316441010975,0,.698229388399341.317021700389887,1.264036011241842.955075708869117,1.697419868531142.638023393155891.437396378447374,1.825806194705365.906895796359095,3.555327189242234,1.416522339324729,2.114753641180869.601922183464922,3.591483889209485,1.304164093024156,4.430160128751595,2.106726685404283.838676239545748.802561635649909,1.255993747803586,1.853918717773922,1.255993747803586,3.154069811274894,0,1.432573859057811-.545718185363512,2.596289426661315-1.629194571341941,3.483120942948517-1.083445770651451.8828185167622-2.62838696493418,1.324227894732758-4.626771752115019,1.324227894732758-.782497116393643,0-1.516836325041368-.068217762947825-2.211069456672703-.208666168779018-.698213124007452-.1444612857631-1.268025570909231-.304973732483631-1.717458556107886-.497588740303399-.445422377495561-.184589367545414-.83867623954211-.381217135707629-1.171740370740736-.577844903868026-.333064131194988-.196627887755312-.565832454525662-.373191495433275-.698243739330792-.525678421472549l-.228727100300603-.196627768160397Z" style="fill: #53565a;"/>
</svg>