<?xml version="1.0" encoding="UTF-8"?>
<svg xmlns="http://www.w3.org/2000/svg" width="291" height="105" viewBox="0 0 300 105">
    <g fill="none" fill-rule="evenodd">
        <g fill="#000" fill-rule="nonzero">
            <path d="M149.561 62.073c-15.265-5.322-32.463-13.598-32.463-32.81C117.098 14.63 130.141 0 151.043 0c21.642 0 33.797 16.405 33.797 16.405l-12.302 12.119s-8.597-11.675-21.495-11.675c-8.894 0-15.861 5.467-15.861 12.414 0 9.014 8.153 11.824 22.385 17.143 15.859 5.911 29.053 13.007 29.053 31.776 0 18.768-16.602 28.818-36.17 28.818-25.944 0-37.952-21.126-37.952-21.126l13.342-11.228s8.894 15.517 24.605 15.517c8.894 0 18.086-3.548 18.086-11.976 0-8.726-6.672-11.827-18.97-16.114zM53.645 106.985C24.065 106.985 0 82.992 0 53.5S24.065.015 53.645.015c29.58 0 53.645 23.993 53.645 53.485s-24.064 53.485-53.645 53.485zm0-89.681c-20.02 0-36.305 16.238-36.305 36.196s16.287 36.196 36.305 36.196S89.95 73.458 89.95 53.5 73.663 17.304 53.645 17.304zM199.958 2.68H217.699V105.71000000000001H199.958zM243.766 52.904L283.907 2.68 262.363 2.68 222.219 52.904 267.007 105.71 289 105.71z" transform="translate(0.000000, -1.000000)"/>
        </g>
    </g>
</svg>